<svg width="1080" height="1080" viewBox="0 0 1080 1080" fill="none" xmlns="http://www.w3.org/2000/svg">
<g id="Frame" clip-path="url(#clip0_0_3)">
<g id="Clip path group">
<mask id="mask0_0_3" style="mask-type:luminance" maskUnits="userSpaceOnUse" x="16" y="22" width="1080" height="1080">
<g id="__lottie_element_78">
<path id="Vector" d="M1096 22H16V1102H1096V22Z" fill="white"/>
</g>
</mask>
<g mask="url(#mask0_0_3)">
<g id="Group">
<g id="Group_2">
<g id="Group_3">
<path id="Vector_2" d="M430.351 631.616C420.845 632.283 374.264 641.379 353.658 682.201C345.804 697.762 327.646 687.781 328.266 669.73C329.27 640.488 359.419 652.25 362.038 638.522C364.658 624.795 339.511 612.826 325.759 612.956C322.872 599.931 282.956 590.083 256.605 630.356C230.254 670.628 259.09 741.883 299.736 759.235C341.583 777.1 390.663 768.026 408.284 754.179" fill="#D8BC9D"/>
<path id="Vector_3" d="M430.351 631.616C420.845 632.283 374.264 641.379 353.658 682.201C345.804 697.762 327.646 687.781 328.266 669.73C329.27 640.488 359.419 652.25 362.038 638.522C364.658 624.795 339.511 612.826 325.759 612.956C322.872 599.931 282.956 590.083 256.605 630.356C230.254 670.628 259.09 741.883 299.736 759.235C341.583 777.1 390.663 768.026 408.284 754.179" stroke="black" stroke-width="5"/>
</g>
<g id="Group_4">
<path id="Vector_4" d="M298.934 621.473C298.934 621.473 321.042 609.165 336.741 615.052L298.934 621.473Z" fill="#D8BC9D"/>
<path id="Vector_5" d="M298.934 621.473C298.934 621.473 321.042 609.165 336.741 615.052" stroke="black" stroke-width="5" stroke-linecap="round"/>
</g>
</g>
<g id="Group_5">
<g id="Group_6">
<path id="Vector_6" d="M651.592 277.353C651.592 277.353 869.019 273.653 864.746 489.58C863.672 513.157 859.282 531.012 854.03 545.772C843.273 578.366 834.121 599.3 831.673 628.466C822.886 733.176 886.484 787.852 813.833 915.877C740.936 1044.34 506.838 1025.06 455.717 1016.21C404.595 1007.36 314.485 954.818 321.956 874.634C335.949 724.475 446.207 754.36 433.756 617.231C432.029 598.207 397.698 586.042 390.199 536.26C382.632 486.051 401.89 455.938 402.923 443.035C402.923 443.035 391.136 295.573 572.543 283.868C624.077 280.466 651.592 277.353 651.592 277.353Z" fill="#D9BD9D"/>
<path id="Vector_7" d="M651.592 277.353C651.592 277.353 869.019 273.653 864.746 489.58C863.672 513.157 859.282 531.012 854.03 545.772C843.273 578.366 834.121 599.3 831.673 628.466C822.886 733.176 886.484 787.852 813.833 915.877C740.936 1044.34 506.838 1025.06 455.717 1016.21C404.595 1007.36 314.485 954.818 321.956 874.634C335.949 724.475 446.207 754.36 433.756 617.231C432.029 598.207 397.698 586.042 390.199 536.26C382.632 486.051 401.89 455.938 402.923 443.035C402.923 443.035 391.136 295.573 572.543 283.868C624.077 280.466 651.592 277.353 651.592 277.353Z" stroke="black" stroke-width="6.35" stroke-linecap="round" stroke-linejoin="round"/>
</g>
</g>
<g id="Group_7">
<g id="Group_8">
<path id="Vector_8" d="M669.956 340.353C732.778 352.696 770.034 381.677 772.76 468.674C771.686 492.251 750.132 549.912 702.916 624.858C655.701 699.804 716.853 771.424 710.663 857.389C704.498 942.99 674.136 968.127 639.858 989.365C605.58 1010.6 506.838 1025.06 455.716 1016.21C404.595 1007.36 314.485 954.818 321.956 874.635C335.949 724.475 446.206 754.361 433.756 617.231C432.028 598.207 397.698 586.042 390.199 536.26C382.632 486.051 401.89 455.938 402.923 443.035C402.923 443.035 415.975 357.537 456.638 343.543C497.301 329.549 512.829 368.039 537.772 370.491C574.166 374.067 607.133 328.01 669.956 340.353Z" fill="white"/>
</g>
</g>
<g id="Group_9">
<g id="Group_10">
<path id="Vector_9" d="M632.79 278.15C632.79 278.15 585.407 235.497 557.746 244.593C551.317 246.798 569.413 275.224 573.592 283.211C567.56 281.655 537.979 263.222 501.768 278.736C501.768 278.736 519.428 299.686 543.601 308.482C540.006 312.139 514.959 316.657 505.838 346.699C528.678 348.752 550.801 336.521 550.801 336.521" fill="#D8BC9D"/>
<path id="Vector_10" d="M632.79 278.15C632.79 278.15 585.407 235.497 557.746 244.593C551.317 246.798 569.413 275.224 573.592 283.211C567.56 281.655 537.979 263.222 501.768 278.736C501.768 278.736 519.428 299.686 543.601 308.482C540.006 312.139 514.959 316.657 505.838 346.699C528.678 348.752 550.801 336.521 550.801 336.521" stroke="black" stroke-width="6" stroke-linecap="round" stroke-linejoin="round"/>
</g>
</g>
<g id="Group_11">
<g id="Group_12">
<path id="Vector_11" d="M651.592 277.353C651.592 277.353 869.019 273.653 864.746 489.58C863.672 513.157 859.282 531.012 854.03 545.772C843.273 578.366 834.121 599.3 831.673 628.466C822.886 733.176 886.484 787.852 813.833 915.877C740.936 1044.34 506.838 1025.06 455.717 1016.21C404.595 1007.36 314.485 954.818 321.956 874.634C335.949 724.475 446.207 754.36 433.756 617.231C432.029 598.207 397.698 586.042 390.199 536.26C382.632 486.051 401.89 455.938 402.923 443.035C402.923 443.035 391.136 295.573 572.543 283.868C624.077 280.466 651.592 277.353 651.592 277.353Z" stroke="black" stroke-width="6.35" stroke-linecap="round" stroke-linejoin="round"/>
</g>
</g>
<g id="Group_13">
<g id="Group_14">
<path id="Vector_12" d="M531.126 470.978C510.448 467.938 494.832 481.786 494.919 488.04C495.006 494.294 512.491 514.257 525.723 515.102C549.177 516.601 563.391 499.579 564.495 495.607C565.599 491.634 551.804 474.019 531.126 470.978Z" fill="#FDB03E"/>
<path id="Vector_13" d="M531.126 470.978C510.448 467.938 494.832 481.786 494.919 488.04C495.006 494.294 512.491 514.257 525.723 515.102C549.177 516.601 563.391 499.579 564.495 495.607C565.599 491.634 551.804 474.019 531.126 470.978Z" stroke="black" stroke-width="2"/>
</g>
</g>
<g id="Group_15">
<g id="Group_16">
<path id="Vector_14" d="M502.912 489.21C502.912 489.21 508.803 500.053 548.006 493.853L502.912 489.21Z" fill="#FDB03E"/>
<path id="Vector_15" d="M502.912 489.21C502.912 489.21 508.803 500.053 548.006 493.853" stroke="black" stroke-width="1.99016"/>
</g>
</g>
<g id="Clip path group_2">
<mask id="mask1_0_3" style="mask-type:luminance" maskUnits="userSpaceOnUse" x="-5" y="-16" width="1109" height="1108">
<g id="__lottie_element_211">
<path id="Vector_16" d="M24.1498 -15.9075L1103.78 12.2553L1075.62 1091.89L-4.01294 1063.73L24.1498 -15.9075Z" fill="white"/>
</g>
</mask>
<g mask="url(#mask1_0_3)">
<g id="Group_17">
<g id="Group_18">
<g id="Group_19">
<path id="Vector_17" d="M695.696 451.263C695.696 451.263 807.527 459.182 834.814 464.119C848.802 466.651 856.139 484.318 855.776 498.203" stroke="black" stroke-width="15" stroke-linecap="round"/>
</g>
<g id="Group_20">
<path id="Vector_18" d="M442.33 394.887C412.097 393.848 392.284 401.338 390.665 429.301C389.754 445.033 390.7 466.315 402.109 489.12C413.518 511.925 436.925 515.787 460.817 510.658C484.709 505.53 502.247 465.974 507.099 433.339C511.952 400.704 472.563 395.926 442.33 394.887Z" fill="black"/>
<path id="Vector_19" d="M442.33 394.887C412.097 393.848 392.284 401.338 390.665 429.301C389.754 445.033 390.7 466.315 402.109 489.12C413.518 511.925 436.925 515.787 460.817 510.658C484.709 505.53 502.247 465.974 507.099 433.339C511.952 400.704 472.563 395.926 442.33 394.887Z" stroke="black" stroke-width="2" stroke-linecap="round"/>
</g>
<g id="Group_21">
<path id="Vector_20" d="M632.995 400.611C611.496 400.3 584.21 401.339 570.126 413.976C554.726 427.793 560.131 451.978 562.239 467.038C564.347 482.098 583.934 517.371 607.072 521.976C630.21 526.581 667.756 525.31 685.908 500.525C704.061 475.739 705.134 425 696.352 416.518C687.57 408.036 654.495 400.922 632.995 400.611Z" fill="black"/>
<path id="Vector_21" d="M632.995 400.611C611.496 400.3 584.21 401.339 570.126 413.976C554.726 427.793 560.131 451.978 562.239 467.038C564.347 482.098 583.934 517.371 607.072 521.976C630.21 526.581 667.756 525.31 685.908 500.525C704.061 475.739 705.134 425 696.352 416.518C687.57 408.036 654.495 400.922 632.995 400.611Z" stroke="black" stroke-width="2" stroke-linecap="round"/>
</g>
<g id="Group_22">
<path id="Vector_22" d="M486.243 398.783C486.243 398.783 516.261 408.069 533.269 408.013C550.276 407.956 595.621 404.888 595.621 404.888" stroke="black" stroke-width="6" stroke-linecap="round"/>
</g>
<g id="Group_23">
<path id="Vector_23" d="M503.464 438.496C503.464 438.496 515.218 419.296 532.462 419.746C549.706 420.196 562.359 443.283 562.359 443.283" stroke="black" stroke-width="5" stroke-linecap="round"/>
</g>
</g>
<g id="Group_24">
<g id="Group_25">
<path id="Vector_24" d="M445.014 397.458C434.517 397.184 408.007 397.243 397.645 410.977C387.283 424.712 395.902 468.201 397.534 472.745C399.166 477.289 406.888 507.251 442.343 509.426C469.994 511.123 490.411 482.166 497.123 455.247C502.15 435.081 501.505 417.688 497.163 411.572C487.916 398.549 455.51 397.732 445.014 397.458Z" fill="#01ADEF"/>
</g>
<g id="Group_26">
<path id="Vector_25" d="M630.661 403.801C612.431 402.825 579.711 401.222 568.463 420.185C551.11 449.44 576.309 492.389 586.055 503.172C600.639 519.307 649.664 528.589 674.308 504.223C698.951 479.858 701.287 428.651 689.572 417.592C677.856 406.533 648.892 404.777 630.661 403.801Z" fill="#01ADEF"/>
</g>
</g>
<g id="Mask group">
<mask id="mask2_0_3" style="mask-type:alpha" maskUnits="userSpaceOnUse" x="392" y="397" width="305" height="123">
<g id="Group_27">
<g id="Group_28">
<g id="Group_29">
<path id="Vector_26" d="M445.014 397.458C434.517 397.184 408.007 397.243 397.645 410.977C387.283 424.712 395.902 468.201 397.534 472.745C399.166 477.289 406.888 507.251 442.343 509.426C469.994 511.123 490.411 482.166 497.123 455.247C502.15 435.081 501.505 417.688 497.163 411.572C487.916 398.549 455.51 397.732 445.014 397.458Z" fill="#01ADEF"/>
</g>
<g id="Group_30">
<path id="Vector_27" d="M630.661 403.801C612.431 402.825 579.711 401.222 568.463 420.185C551.11 449.44 576.309 492.389 586.055 503.172C600.639 519.307 649.664 528.589 674.308 504.223C698.951 479.858 701.287 428.651 689.572 417.592C677.856 406.533 648.892 404.777 630.661 403.801Z" fill="#01ADEF"/>
</g>
</g>
</g>
</mask>
<g mask="url(#mask2_0_3)">
<g id="Group_31">
<g id="Group_32">
<g id="Group_33">
<path id="Vector_28" d="M450.594 384.849L422.321 385.362C422.321 385.362 439.007 416.808 435.839 423.227C432.67 429.647 420.892 430.59 417.723 437.01C414.555 443.429 443.621 517.962 443.621 517.962L457.866 518.334C457.866 518.334 451.616 451.148 454.285 444.716C456.953 438.283 467.856 432.565 468.499 427.08C469.143 421.595 450.594 384.849 450.594 384.849Z" fill="white"/>
</g>
</g>
</g>
</g>
</g>
<g id="Mask group_2">
<mask id="mask3_0_3" style="mask-type:alpha" maskUnits="userSpaceOnUse" x="392" y="397" width="305" height="123">
<g id="Group_34">
<g id="Group_35">
<g id="Group_36">
<path id="Vector_29" d="M445.014 397.458C434.517 397.184 408.007 397.243 397.645 410.977C387.283 424.712 395.902 468.201 397.534 472.745C399.166 477.289 406.888 507.251 442.343 509.426C469.994 511.123 490.411 482.166 497.123 455.247C502.15 435.081 501.505 417.688 497.163 411.572C487.916 398.549 455.51 397.732 445.014 397.458Z" fill="#01ADEF"/>
</g>
<g id="Group_37">
<path id="Vector_30" d="M630.661 403.801C612.431 402.825 579.711 401.222 568.463 420.185C551.11 449.44 576.309 492.389 586.055 503.172C600.639 519.307 649.664 528.589 674.308 504.223C698.951 479.858 701.287 428.651 689.572 417.592C677.856 406.533 648.892 404.777 630.661 403.801Z" fill="#01ADEF"/>
</g>
</g>
</g>
</mask>
<g mask="url(#mask3_0_3)">
<g id="Group_38">
<g id="Group_39">
<g id="Group_40">
<path id="Vector_31" d="M634.532 389.647L606.259 390.16C606.259 390.16 622.945 421.606 619.776 428.025C616.608 434.445 604.829 435.388 601.661 441.808C598.492 448.227 627.558 522.761 627.558 522.761L641.804 523.132C641.804 523.132 635.553 455.946 638.222 449.514C640.891 443.081 651.793 437.363 652.437 431.878C653.08 426.393 634.532 389.647 634.532 389.647Z" fill="white"/>
</g>
</g>
</g>
</g>
</g>
</g>
</g>
</g>
<g id="Group_41">
<g id="Group_42">
<path id="Vector_32" d="M310.028 905.064C288.179 929.639 323.465 972.651 330.4 983.087C337.335 993.522 377.787 1032.62 404.826 1007.7C431.302 983.3 418.528 946.272 394.952 917.716C380.181 899.826 334.704 877.31 310.028 905.064Z" fill="#FFB03B"/>
<path id="Vector_33" d="M310.028 905.064C288.179 929.639 323.465 972.651 330.4 983.087C337.335 993.522 377.787 1032.62 404.826 1007.7C431.302 983.3 418.528 946.272 394.952 917.716C380.181 899.826 334.704 877.31 310.028 905.064Z" stroke="black" stroke-width="5"/>
</g>
</g>
<g id="Clip path group_3">
<mask id="mask4_0_3" style="mask-type:luminance" maskUnits="userSpaceOnUse" x="-5" y="-16" width="1109" height="1108">
<g id="__lottie_element_180">
<path id="Vector_34" d="M24.1498 -15.9075L1103.78 12.2553L1075.62 1091.89L-4.01294 1063.73L24.1498 -15.9075Z" fill="white"/>
</g>
</mask>
<g mask="url(#mask4_0_3)">
<g id="Group_43">
<g id="8Assets">
<g id="Group_44">
<path id="Vector_35" d="M400.763 585.227C380.339 594.637 395.592 630.968 395.361 650.046C395.02 677.983 373.319 705.422 402.196 715.544C529.886 760.301 674.451 714.274 768.903 681.519C797.382 671.643 844.985 691.322 852.89 677.189C869.408 647.659 859.489 629.46 857.438 619.539C854.383 604.746 862.902 575.003 850.054 561.857C848.041 578.578 802.336 563.888 761.038 576.586C661.412 607.216 499.388 647.146 400.763 585.227Z" fill="#E35B7D"/>
<path id="Vector_36" d="M400.763 585.227C380.339 594.637 395.592 630.968 395.361 650.046C395.02 677.983 373.319 705.422 402.196 715.544C529.886 760.301 674.451 714.274 768.903 681.519C797.382 671.643 844.985 691.321 852.89 677.189C869.408 647.659 859.489 629.46 857.438 619.539C854.383 604.746 862.902 575.003 850.054 561.857C848.041 578.578 802.336 563.888 761.038 576.586C661.412 607.216 499.388 647.146 400.763 585.227Z" stroke="black" stroke-width="6.44996" stroke-miterlimit="10"/>
</g>
</g>
<g id="Group_45">
<g id="Group_46">
<path id="Vector_37" d="M499.24 615.367C499.24 615.367 490.712 677.136 487.366 721.981L499.24 615.367Z" fill="#E35B7D"/>
<path id="Vector_38" d="M499.24 615.367C499.24 615.367 490.712 677.136 487.366 721.981" stroke="#CE1D5F" stroke-width="10.7878"/>
<path id="Vector_39" d="M499.24 615.367C499.24 615.367 490.712 677.136 487.366 721.981" stroke="black" stroke-width="3.23634" stroke-linecap="round"/>
</g>
</g>
<g id="Group_47">
<g id="Group_48">
<path id="Vector_40" d="M564.681 617.675C564.681 617.675 558.27 676.654 556.327 719.404L564.681 617.675Z" fill="#E35B7D"/>
<path id="Vector_41" d="M564.681 617.675C564.681 617.675 558.27 676.654 556.327 719.404" stroke="#CE1D5F" stroke-width="10.2746"/>
<path id="Vector_42" d="M564.681 617.675C564.681 617.675 558.27 676.654 556.327 719.404" stroke="black" stroke-width="3.08239" stroke-linecap="round"/>
</g>
</g>
<g id="Group_49">
<g id="Group_50">
<path id="Vector_43" d="M643.577 605.23C643.577 605.23 641.021 664.387 641.871 707.11L643.577 605.23Z" fill="#E35B7D"/>
<path id="Vector_44" d="M643.577 605.23C643.577 605.23 641.021 664.387 641.871 707.11" stroke="#CE1D5F" stroke-width="10.276"/>
<path id="Vector_45" d="M643.577 605.23C643.577 605.23 641.021 664.387 641.871 707.11" stroke="black" stroke-width="3.0828" stroke-linecap="round"/>
</g>
</g>
<g id="Group_51">
<g id="Group_52">
<path id="Vector_46" d="M712.359 590.346C712.359 590.346 712.098 649.502 714.606 692.133L712.359 590.346Z" fill="#E35B7D"/>
<path id="Vector_47" d="M712.359 590.346C712.359 590.346 712.098 649.502 714.606 692.133" stroke="#CE1D5F" stroke-width="10.277"/>
<path id="Vector_48" d="M712.359 590.346C712.359 590.346 712.098 649.502 714.606 692.133" stroke="black" stroke-width="3.0831" stroke-linecap="round"/>
</g>
</g>
<g id="Group_53">
<g id="Group_54">
<path id="Vector_49" d="M774.205 574.437C774.205 574.437 775.807 633.52 779.658 676.023L774.205 574.437Z" fill="#E35B7D"/>
<path id="Vector_50" d="M774.205 574.437C774.205 574.437 775.807 633.52 779.658 676.023" stroke="#CE1D5F" stroke-width="10.2778"/>
<path id="Vector_51" d="M774.205 574.437C774.205 574.437 775.807 633.52 779.658 676.023" stroke="black" stroke-width="3.08333" stroke-linecap="round"/>
</g>
</g>
<g id="Group_55">
<g id="Group_56">
<path id="Vector_52" d="M828.259 573.789C828.259 573.789 827.52 632.884 829.686 675.484L828.259 573.789Z" fill="#E35B7D"/>
<path id="Vector_53" d="M828.259 573.789C828.259 573.789 827.52 632.884 829.686 675.484" stroke="#CE1D5F" stroke-width="10.2768"/>
<path id="Vector_54" d="M828.259 573.789C828.259 573.789 827.52 632.884 829.686 675.484" stroke="black" stroke-width="3.08305" stroke-linecap="round"/>
</g>
</g>
<g id="8Assets_2">
<g id="Group_57">
<path id="Vector_55" d="M400.763 585.227C380.339 594.637 395.592 630.968 395.361 650.046C395.02 677.983 373.319 705.422 402.196 715.544C529.886 760.301 674.451 714.274 768.903 681.519C797.382 671.643 844.985 691.321 852.89 677.189C869.408 647.659 859.489 629.46 857.438 619.539C854.383 604.746 862.902 575.003 850.054 561.857C848.041 578.578 802.336 563.888 761.038 576.586C661.412 607.216 499.388 647.146 400.763 585.227Z" stroke="black" stroke-width="6.44996" stroke-miterlimit="10"/>
</g>
</g>
</g>
</g>
</g>
<g id="Scarf">
<mask id="mask5_0_3" style="mask-type:luminance" maskUnits="userSpaceOnUse" x="-16" y="-32" width="1124" height="1124">
<g id="__lottie_element_155">
<path id="Vector_56" d="M-15.7634 12.7043L1063.35 -31.1201L1107.17 1047.99L28.061 1091.81L-15.7634 12.7043Z" fill="white"/>
</g>
</mask>
<g mask="url(#mask5_0_3)">
<g id="Group_58">
<g id="8Assets_3">
<g id="Group_59">
<path id="Vector_57" d="M481.26 609.529C448.581 727.219 437.591 762.139 362.99 832.685L355.407 810.802L328.558 830.635L321.912 803.936C321.912 803.936 298.163 812.267 296.927 812.355C301.684 783.383 377.793 692.543 404.953 582.904C431.302 565.057 457.692 587.205 481.26 609.529Z" fill="#E35B7D"/>
<path id="Vector_58" d="M481.26 609.529C448.581 727.219 437.591 762.139 362.99 832.685L355.407 810.802L328.558 830.635L321.912 803.936C321.912 803.936 298.163 812.267 296.927 812.355C301.684 783.383 377.793 692.543 404.953 582.904C431.302 565.057 457.692 587.205 481.26 609.529Z" stroke="black" stroke-width="5.83446" stroke-miterlimit="10"/>
</g>
</g>
<g id="Group_60">
<g id="Group_61">
<path id="Vector_59" d="M399.995 611.941C399.995 611.941 427.078 613.207 467.979 630.212L399.995 611.941Z" fill="#E35B7D"/>
<path id="Vector_60" d="M399.995 611.941C399.995 611.941 427.078 613.207 467.979 630.212" stroke="#CE1D5F" stroke-width="10.2754"/>
<path id="Vector_61" d="M399.995 611.941C399.995 611.941 427.078 613.207 467.979 630.212" stroke="black" stroke-width="3.08262" stroke-linecap="round"/>
</g>
</g>
<g id="Group_62">
<g id="Group_63">
<path id="Vector_62" d="M390.071 640.752C390.071 640.752 417.155 642.018 458.056 659.023L390.071 640.752Z" fill="#E35B7D"/>
<path id="Vector_63" d="M390.071 640.752C390.071 640.752 417.155 642.018 458.056 659.023" stroke="#CE1D5F" stroke-width="10.2754"/>
<path id="Vector_64" d="M390.071 640.752C390.071 640.752 417.155 642.018 458.056 659.023" stroke="black" stroke-width="3.08262" stroke-linecap="round"/>
</g>
</g>
<g id="Group_64">
<g id="Group_65">
<path id="Vector_65" d="M377.821 673.641C377.821 673.641 404.904 674.907 445.805 691.912L377.821 673.641Z" fill="#E35B7D"/>
<path id="Vector_66" d="M377.821 673.641C377.821 673.641 404.904 674.907 445.805 691.912" stroke="#CE1D5F" stroke-width="10.2754"/>
<path id="Vector_67" d="M377.821 673.641C377.821 673.641 404.904 674.907 445.805 691.912" stroke="black" stroke-width="3.08262" stroke-linecap="round"/>
</g>
</g>
<g id="Group_66">
<g id="Group_67">
<path id="Vector_68" d="M367.539 700.792C367.539 700.792 394.561 703.24 434.534 721.988L367.539 700.792Z" fill="#E35B7D"/>
<path id="Vector_69" d="M367.539 700.792C367.539 700.792 394.561 703.24 434.534 721.988" stroke="#CE1D5F" stroke-width="10.2737"/>
<path id="Vector_70" d="M367.539 700.792C367.539 700.792 394.561 703.24 434.534 721.988" stroke="black" stroke-width="3.08212" stroke-linecap="round"/>
</g>
</g>
<g id="Group_68">
<g id="Group_69">
<path id="Vector_71" d="M351.794 730.482C351.794 730.482 378.828 732.756 418.944 751.25L351.794 730.482Z" fill="#E35B7D"/>
<path id="Vector_72" d="M351.794 730.482C351.794 730.482 378.828 732.756 418.944 751.25" stroke="#CE1D5F" stroke-width="10.2739"/>
<path id="Vector_73" d="M351.794 730.482C351.794 730.482 378.828 732.756 418.944 751.25" stroke="black" stroke-width="3.08217" stroke-linecap="round"/>
</g>
</g>
<g id="Group_70">
<g id="Group_71">
<path id="Vector_74" d="M332.545 760.762C332.545 760.762 359.364 764.989 397.773 786.284L332.545 760.762Z" fill="#E35B7D"/>
<path id="Vector_75" d="M332.545 760.762C332.545 760.762 359.364 764.989 397.773 786.284" stroke="#CE1D5F" stroke-width="10.2724"/>
<path id="Vector_76" d="M332.545 760.762C332.545 760.762 359.364 764.989 397.773 786.284" stroke="black" stroke-width="3.08173" stroke-linecap="round"/>
</g>
</g>
</g>
</g>
</g>
<g id="Guitarr">
<mask id="mask6_0_3" style="mask-type:luminance" maskUnits="userSpaceOnUse" x="1" y="-8" width="1090" height="1091">
<g id="__lottie_element_104">
<path id="Vector_77" d="M10.8891 -7.3045L1090.85 2.08402L1081.46 1082.04L1.50058 1072.65L10.8891 -7.3045Z" fill="white"/>
</g>
</mask>
<g mask="url(#mask6_0_3)">
<g id="Group_72">
<g id="Group_73">
<g id="Group_74">
<path id="Vector_78" d="M523.202 649.174C483.852 645.731 454.878 686.081 454.878 686.081L305.575 590.9C305.575 590.9 307.029 581.792 297.238 575.332C266.357 554.956 201.405 514.794 201.405 514.794C201.405 514.794 191.155 509.282 183.25 520.796C173.496 535.001 164.314 550.42 156.245 564.874C150.074 575.927 155.937 582.331 162.089 586.647C190.062 606.276 221.006 624.375 250.114 641.947C259.953 647.885 267.65 641.898 267.65 641.898L424.449 735.319C424.449 735.319 395.879 780.278 435.192 822.415C472.348 862.24 497.525 841.958 517.907 855.636C538.289 869.313 526.741 932.215 572.018 958.11C617.295 984.004 704.843 978.765 749.494 904.151C794.144 829.536 776.201 765.378 731.855 747.491C687.509 729.605 640.802 753.2 614.942 736.975C589.082 720.749 586.656 654.726 523.202 649.174Z" fill="#A75C2B"/>
<path id="Vector_79" d="M523.202 649.174C483.852 645.731 454.878 686.081 454.878 686.081L305.575 590.9C305.575 590.9 307.029 581.792 297.238 575.332C266.357 554.956 201.405 514.794 201.405 514.794C201.405 514.794 191.155 509.282 183.25 520.796C173.496 535.001 164.314 550.42 156.245 564.874C150.074 575.927 155.937 582.331 162.089 586.647C190.062 606.276 221.006 624.375 250.114 641.947C259.953 647.885 267.65 641.898 267.65 641.898L424.449 735.319C424.449 735.319 395.879 780.278 435.192 822.415C472.348 862.24 497.525 841.958 517.907 855.636C538.289 869.313 526.741 932.215 572.018 958.11C617.295 984.004 704.843 978.765 749.494 904.151C794.144 829.536 776.201 765.378 731.855 747.491C687.509 729.605 640.802 753.2 614.942 736.975C589.082 720.749 586.656 654.726 523.202 649.174Z" stroke="black" stroke-width="5"/>
</g>
</g>
<g id="Group_75">
<g id="Group_76">
<path id="Vector_80" d="M637.428 796.172C633.771 800.261 609.612 832.432 599.803 854.169C596.14 862.288 602.817 867.375 606.038 869.652C618.214 878.258 626.307 867.578 626.307 867.578C626.307 867.578 646.819 837.506 659.482 818.865C672.144 800.224 657.453 793.346 654.467 791.82C651.48 790.294 644.75 787.986 637.428 796.172Z" fill="#FFB03B"/>
<path id="Vector_81" d="M637.428 796.172C633.771 800.261 609.612 832.432 599.803 854.169C596.14 862.288 602.817 867.375 606.038 869.652C618.214 878.258 626.307 867.578 626.307 867.578C626.307 867.578 646.819 837.506 659.482 818.865C672.144 800.224 657.453 793.346 654.467 791.82C651.48 790.294 644.75 787.986 637.428 796.172Z" stroke="black" stroke-width="5"/>
</g>
</g>
<g id="Group_77">
<g id="Group_78">
<path id="Vector_82" d="M181.207 560.8C186.807 560.849 191.315 565.435 191.266 571.035C191.217 576.636 186.631 581.143 181.031 581.094C175.43 581.046 170.923 576.459 170.972 570.859C171.02 565.259 175.607 560.751 181.207 560.8Z" fill="#817C77"/>
<path id="Vector_83" d="M181.207 560.8C186.807 560.849 191.315 565.435 191.266 571.035C191.217 576.636 186.631 581.143 181.031 581.094C175.43 581.046 170.923 576.459 170.972 570.859C171.02 565.259 175.607 560.751 181.207 560.8Z" stroke="black" stroke-width="5"/>
</g>
<g id="Group_79">
<path id="Vector_84" d="M201.743 528.005C207.328 528.053 211.823 532.627 211.774 538.212C211.726 543.797 207.152 548.293 201.567 548.244C195.982 548.196 191.487 543.621 191.535 538.036C191.584 532.451 196.158 527.956 201.743 528.005Z" fill="#817C77"/>
<path id="Vector_85" d="M201.743 528.005C207.328 528.053 211.823 532.627 211.774 538.212C211.726 543.797 207.152 548.293 201.567 548.244C195.982 548.196 191.487 543.621 191.535 538.036C191.584 532.451 196.158 527.956 201.743 528.005Z" stroke="black" stroke-width="5"/>
</g>
<g id="Group_80">
<path id="Vector_86" d="M236.058 549.379C241.188 549.424 245.317 553.625 245.272 558.754C245.228 563.884 241.026 568.013 235.897 567.968C230.767 567.924 226.638 563.723 226.683 558.593C226.727 553.463 230.929 549.334 236.058 549.379Z" fill="#817C77"/>
<path id="Vector_87" d="M236.058 549.379C241.188 549.424 245.317 553.625 245.272 558.754C245.228 563.884 241.026 568.013 235.897 567.968C230.767 567.924 226.638 563.723 226.683 558.593C226.727 553.463 230.929 549.334 236.058 549.379Z" stroke="black" stroke-width="5"/>
</g>
<g id="Group_81">
<path id="Vector_88" d="M215.766 582.904C220.923 582.949 225.074 587.173 225.029 592.33C224.984 597.487 220.761 601.637 215.604 601.593C210.447 601.548 206.296 597.324 206.341 592.167C206.386 587.01 210.609 582.859 215.766 582.904Z" fill="#817C77"/>
<path id="Vector_89" d="M215.766 582.904C220.923 582.949 225.074 587.173 225.029 592.33C224.984 597.487 220.761 601.637 215.604 601.593C210.447 601.548 206.296 597.324 206.341 592.167C206.386 587.01 210.609 582.859 215.766 582.904Z" stroke="black" stroke-width="5"/>
</g>
<g id="Group_82">
<path id="Vector_90" d="M249.827 604.847C254.903 604.891 258.989 609.049 258.945 614.125C258.901 619.202 254.743 623.288 249.667 623.244C244.59 623.2 240.504 619.042 240.548 613.965C240.592 608.889 244.75 604.803 249.827 604.847Z" fill="#817C77"/>
<path id="Vector_91" d="M249.827 604.847C254.903 604.891 258.989 609.049 258.945 614.125C258.901 619.202 254.743 623.288 249.667 623.244C244.59 623.2 240.504 619.042 240.548 613.965C240.592 608.889 244.75 604.803 249.827 604.847Z" stroke="black" stroke-width="5"/>
</g>
<g id="Group_83">
<path id="Vector_92" d="M271.38 570.08C276.844 570.128 281.242 574.603 281.195 580.067C281.147 585.532 276.672 589.93 271.208 589.883C265.743 589.835 261.345 585.36 261.393 579.895C261.44 574.431 265.915 570.033 271.38 570.08Z" fill="#817C77"/>
<path id="Vector_93" d="M271.38 570.08C276.844 570.128 281.242 574.603 281.195 580.067C281.147 585.532 276.672 589.93 271.208 589.883C265.743 589.835 261.345 585.36 261.393 579.895C261.44 574.431 265.915 570.033 271.38 570.08Z" stroke="black" stroke-width="5"/>
</g>
</g>
<g id="Group_84">
<g id="Group_85">
<path id="Vector_94" d="M216.285 494.5C210.027 495.321 206.544 507.791 207.508 511.924C208.472 516.058 216.056 520.749 219.432 520.653C222.808 520.558 234.739 514.161 234.533 509.159C234.326 504.157 222.542 493.679 216.285 494.5Z" fill="#817C77"/>
<path id="Vector_95" d="M216.285 494.5C210.027 495.321 206.544 507.791 207.508 511.924C208.472 516.058 216.056 520.749 219.432 520.653C222.808 520.558 234.739 514.161 234.533 509.159C234.326 504.157 222.542 493.679 216.285 494.5Z" stroke="black" stroke-width="5"/>
</g>
</g>
<g id="Group_86">
<g id="Group_87">
<path id="Vector_96" d="M250.954 518.302C244.697 519.123 241.213 531.593 242.177 535.727C243.141 539.86 250.726 544.551 254.102 544.456C257.478 544.36 269.409 537.963 269.202 532.961C268.996 527.959 257.211 517.482 250.954 518.302Z" fill="#817C77"/>
<path id="Vector_97" d="M250.954 518.302C244.697 519.123 241.213 531.593 242.177 535.727C243.141 539.86 250.726 544.551 254.102 544.456C257.478 544.36 269.409 537.963 269.202 532.961C268.996 527.959 257.211 517.482 250.954 518.302Z" stroke="black" stroke-width="5"/>
</g>
</g>
<g id="Group_88">
<g id="Group_89">
<path id="Vector_98" d="M284.89 540.223C278.632 541.044 275.149 553.514 276.113 557.647C277.077 561.781 284.662 566.472 288.038 566.376C291.413 566.281 303.345 559.884 303.138 554.882C302.931 549.88 291.147 539.402 284.89 540.223Z" fill="#817C77"/>
<path id="Vector_99" d="M284.89 540.223C278.632 541.044 275.149 553.514 276.113 557.647C277.077 561.781 284.662 566.472 288.038 566.376C291.413 566.281 303.345 559.884 303.138 554.882C302.931 549.88 291.147 539.402 284.89 540.223Z" stroke="black" stroke-width="5"/>
</g>
</g>
<g id="Group_90">
<g id="Group_91">
<path id="Vector_100" d="M237.292 657.813C243.428 656.338 245.579 643.57 244.185 639.561C242.791 635.552 234.755 631.686 231.407 632.136C228.06 632.587 216.869 640.205 217.602 645.157C218.334 650.11 231.156 659.288 237.292 657.813Z" fill="#817C77"/>
<path id="Vector_101" d="M237.292 657.813C243.428 656.338 245.579 643.57 244.185 639.561C242.791 635.552 234.755 631.686 231.407 632.136C228.06 632.587 216.869 640.205 217.602 645.157C218.334 650.11 231.156 659.288 237.292 657.813Z" stroke="black" stroke-width="5"/>
</g>
</g>
<g id="Group_92">
<g id="Group_93">
<path id="Vector_102" d="M202.222 637.007C208.358 635.532 210.509 622.764 209.115 618.755C207.72 614.746 199.684 610.88 196.337 611.331C192.99 611.781 181.799 619.399 182.531 624.351C183.263 629.304 196.086 638.482 202.222 637.007Z" fill="#817C77"/>
<path id="Vector_103" d="M202.222 637.007C208.358 635.532 210.509 622.764 209.115 618.755C207.72 614.746 199.684 610.88 196.337 611.331C192.99 611.781 181.799 619.399 182.531 624.351C183.263 629.304 196.086 638.482 202.222 637.007Z" stroke="black" stroke-width="5"/>
</g>
</g>
<g id="Group_94">
<g id="Group_95">
<path id="Vector_104" d="M166.656 615.697C172.792 614.222 174.943 601.454 173.549 597.445C172.154 593.436 164.118 589.57 160.771 590.021C157.424 590.471 146.233 598.089 146.965 603.042C147.697 607.994 160.52 617.172 166.656 615.697Z" fill="#817C77"/>
<path id="Vector_105" d="M166.656 615.697C172.792 614.222 174.943 601.454 173.549 597.445C172.154 593.436 164.118 589.57 160.771 590.021C157.424 590.471 146.233 598.089 146.965 603.042C147.697 607.994 160.52 617.172 166.656 615.697Z" stroke="black" stroke-width="5"/>
</g>
</g>
<g id="Group_96">
<g id="Group_97">
<path id="Vector_106" d="M302.679 593.255L633.954 793.142" stroke="white" stroke-width="5"/>
</g>
</g>
<g id="Group_98">
<g id="Group_99">
<path id="Vector_107" d="M295.584 604.193L626.859 804.081" stroke="white" stroke-width="5"/>
</g>
</g>
<g id="Group_100">
<g id="Group_101">
<path id="Vector_108" d="M290.002 613.645L621.277 813.533" stroke="white" stroke-width="5"/>
</g>
</g>
<g id="Group_102">
<g id="Group_103">
<path id="Vector_109" d="M284.424 622.597L615.699 822.485" stroke="white" stroke-width="5"/>
</g>
</g>
<g id="Group_104">
<g id="Group_105">
<path id="Vector_110" d="M279.341 632.053L610.616 831.941" stroke="white" stroke-width="5"/>
</g>
</g>
<g id="Group_106">
<g id="Group_107">
<path id="Vector_111" d="M272.746 642.996L604.021 842.884" stroke="white" stroke-width="5"/>
</g>
</g>
</g>
</g>
</g>
<g id="Right hand">
<mask id="mask7_0_3" style="mask-type:luminance" maskUnits="userSpaceOnUse" x="204" y="549" width="177" height="236">
<g id="__lottie_element_152">
<path id="Vector_112" d="M278.563 549.043L204.279 638.901L283.015 784.591L341.948 677.599L380.903 625.436L278.563 549.043Z" fill="white"/>
</g>
</mask>
<g mask="url(#mask7_0_3)">
<g id="Group_108">
<g id="Group_109">
<path id="Vector_113" d="M417.799 637.507C408.293 638.175 374.264 641.379 353.658 682.201C345.804 697.762 327.646 687.781 328.266 669.73C329.27 640.488 359.419 652.25 362.038 638.522C364.658 624.795 339.511 612.826 325.759 612.956C322.872 599.931 282.956 590.083 256.605 630.356C230.254 670.628 259.09 741.883 299.736 759.235C341.583 777.1 390.663 768.026 408.284 754.179" fill="#D8BC9D"/>
<path id="Vector_114" d="M417.799 637.507C408.293 638.175 374.264 641.379 353.658 682.201C345.804 697.762 327.646 687.781 328.266 669.73C329.27 640.488 359.419 652.25 362.038 638.522C364.658 624.795 339.511 612.826 325.759 612.956C322.872 599.931 282.956 590.083 256.605 630.356C230.254 670.628 259.09 741.883 299.736 759.235C341.583 777.1 390.663 768.026 408.284 754.179" stroke="black" stroke-width="5"/>
</g>
<g id="Group_110">
<path id="Vector_115" d="M298.934 621.473C298.934 621.473 321.042 609.165 336.741 615.052L298.934 621.473Z" fill="#D8BC9D"/>
<path id="Vector_116" d="M298.934 621.473C298.934 621.473 321.042 609.165 336.741 615.052" stroke="black" stroke-width="5" stroke-linecap="round"/>
</g>
</g>
</g>
</g>
<g id="Left hand">
<g id="Group_111">
<path id="Vector_117" d="M789.705 684.499C789.705 684.499 739.474 658.224 621.19 677.562C520.207 694.072 475.228 725.215 476.999 741.8C480.653 776.023 557.903 797.987 645.876 791.867C704.313 787.801 715.216 808.504 777.818 796.866" fill="#D9BD9D"/>
<path id="Vector_118" d="M789.705 684.499C789.705 684.499 739.474 658.224 621.19 677.562C520.207 694.072 475.228 725.215 476.999 741.8C480.653 776.023 557.903 797.987 645.876 791.867C704.313 787.801 715.216 808.504 777.818 796.866" stroke="black" stroke-width="5" stroke-linecap="round"/>
</g>
</g>
<g id="Hat">
<mask id="mask8_0_3" style="mask-type:luminance" maskUnits="userSpaceOnUse" x="197" y="5" width="861" height="862">
<g id="__lottie_element_84">
<path id="Vector_119" d="M1050.6 5.83881L197.429 12.9537L204.544 866.124L1057.71 859.009L1050.6 5.83881Z" fill="white"/>
</g>
</mask>
<g mask="url(#mask8_0_3)">
<g id="Group_112">
<g id="Group_113">
<g id="Group_114">
<path id="Vector_120" d="M608.804 80.2305C621.848 81.3068 635.597 119.508 635.989 119.11C636.381 118.712 649.211 94.1141 661.778 85.319C674.345 76.5239 707.949 79.7988 737.672 91.4013C767.394 103.004 793.18 116.219 794.984 143.065C798.746 199.034 817.598 296.932 824.201 330.848C884.16 320.868 982.67 291.605 985.619 361.103C988.886 438.07 901.073 454.241 869.494 456.875C855.603 401.689 847.559 384.375 828.349 354.514C627.327 406.752 450.494 451.901 309.044 371.09C272.926 350.456 292.991 293.407 341.215 297.35C355.084 298.484 409.196 301.918 447.993 312.26C483.265 231.383 503.452 141.546 514.324 118.94C525.195 96.3333 595.76 79.1543 608.804 80.2305Z" fill="#A97B4F"/>
<path id="Vector_121" d="M608.804 80.2305C621.848 81.3068 635.597 119.508 635.989 119.11C636.381 118.712 649.211 94.1141 661.778 85.319C674.345 76.5239 707.949 79.7988 737.672 91.4013C767.394 103.004 793.18 116.219 794.984 143.065C798.746 199.034 817.598 296.932 824.201 330.848C884.16 320.868 982.67 291.605 985.619 361.103C988.886 438.07 901.073 454.241 869.494 456.875C855.603 401.689 847.559 384.375 828.349 354.514C627.327 406.752 450.494 451.901 309.044 371.09C272.926 350.456 292.991 293.407 341.215 297.35C355.084 298.484 409.196 301.918 447.993 312.26C483.265 231.383 503.452 141.546 514.323 118.94C525.195 96.3333 595.76 79.1543 608.804 80.2305Z" stroke="black" stroke-width="3.95"/>
</g>
</g>
<g id="Group_115">
<g id="Group_116">
<path id="Vector_122" d="M639.498 113.551C639.498 113.551 631.737 130.206 614.4 135.486" stroke="black" stroke-width="3.95" stroke-linecap="round"/>
</g>
</g>
<g id="Group_117">
<g id="Group_118">
<path id="Vector_123" d="M820.851 355.367L896.53 335.775" stroke="black" stroke-width="3.95" stroke-linecap="round"/>
</g>
</g>
<g id="Group_119">
<g id="Group_120">
<path id="Vector_124" d="M632.761 253.047C747.337 255.646 811.828 268.144 811.828 268.144C811.828 268.144 819.689 310.74 822.618 330.466C647.501 362.738 473.128 342.071 458.875 338.24C444.623 334.409 442.612 330.08 445.288 319.392C458.085 290.845 469.655 257.172 469.655 257.172C469.655 257.172 518.185 250.447 632.761 253.047Z" fill="#AF553B"/>
<path id="Vector_125" d="M632.761 253.047C747.337 255.646 811.828 268.144 811.828 268.144C811.828 268.144 819.689 310.74 822.618 330.466C647.501 362.738 473.128 342.071 458.875 338.24C444.623 334.409 442.612 330.08 445.288 319.392C458.085 290.845 469.655 257.172 469.655 257.172C469.655 257.172 518.185 250.447 632.761 253.047Z" stroke="black" stroke-width="3.95"/>
</g>
</g>
</g>
</g>
</g>
<g id="Group_121">
<g id="Group_122">
<path id="Vector_126" d="M595.082 914.269C562.499 892 520.282 926.77 505.891 943.886C491.5 961.001 472.81 1010.66 497.155 1032.08C521.501 1053.5 567.875 1032.37 593.406 999.417C609.402 978.769 629.683 937.918 595.082 914.269Z" fill="#FFB03B"/>
<path id="Vector_127" d="M595.082 914.269C562.499 892 520.282 926.77 505.891 943.886C491.5 961.001 472.81 1010.66 497.155 1032.08C521.501 1053.5 567.875 1032.37 593.406 999.417C609.402 978.769 629.683 937.918 595.082 914.269Z" stroke="black" stroke-width="5.43695"/>
</g>
</g>
</g>
</g>
</g>
</g>
<defs>
<clipPath id="clip0_0_3">
<rect width="1080" height="1080" fill="white"/>
</clipPath>
</defs>
</svg>
